G04 #@! TF.FileFunction,Copper,L2,Bot,Signal*
%FSLAX46Y46*%
G04 Gerber Fmt 4.6, Leading zero omitted, Abs format (unit mm)*
G04 Created by KiCad (PCBNEW 4.0.0-rc2-stable) date 3/4/2016 11:30:43 PM*
%MOMM*%
G01*
G04 APERTURE LIST*
%ADD10C,0.100000*%
%ADD11R,1.300000X1.300000*%
%ADD12C,1.300000*%
%ADD13R,1.727200X2.032000*%
%ADD14O,1.727200X2.032000*%
%ADD15C,1.998980*%
%ADD16O,1.600000X1.600000*%
%ADD17C,0.508000*%
%ADD18C,0.250000*%
%ADD19C,0.254000*%
G04 APERTURE END LIST*
D10*
D11*
X145592800Y-62331600D03*
D12*
X143092800Y-62331600D03*
D13*
X142951200Y-43484800D03*
D14*
X145491200Y-43484800D03*
X148031200Y-43484800D03*
D15*
X148386800Y-57048400D03*
X148386800Y-49428400D03*
X151561800Y-57099200D03*
X151561800Y-49479200D03*
D16*
X137833100Y-50647600D03*
X137833100Y-53187600D03*
X137833100Y-55727600D03*
X137833100Y-58267600D03*
X145453100Y-58267600D03*
X145453100Y-55727600D03*
X145453100Y-53187600D03*
X145453100Y-50647600D03*
D17*
X145592800Y-62331600D02*
X145592800Y-58407300D01*
D18*
X145592800Y-58407300D02*
X145453100Y-58267600D01*
X145453100Y-62191900D02*
X145592800Y-62331600D01*
D17*
X137833100Y-58267600D02*
X137033101Y-57467601D01*
X135054990Y-47682931D02*
X141485131Y-41252790D01*
X137033101Y-57467601D02*
X137033101Y-56783523D01*
X137033101Y-56783523D02*
X136685188Y-56435610D01*
X145951590Y-41252790D02*
X148031200Y-43332400D01*
X136685188Y-56435610D02*
X136408463Y-56435610D01*
X136408463Y-56435610D02*
X135054990Y-55082137D01*
X135054990Y-55082137D02*
X135054990Y-47682931D01*
X141485131Y-41252790D02*
X145951590Y-41252790D01*
X148031200Y-43332400D02*
X148031200Y-43484800D01*
X148031200Y-43484800D02*
X148031200Y-49072800D01*
D18*
X148031200Y-49072800D02*
X148386800Y-49428400D01*
D17*
X148386800Y-49428400D02*
X147167600Y-50647600D01*
X147167600Y-50647600D02*
X145453100Y-50647600D01*
X148386800Y-54965600D02*
X146608800Y-53187600D01*
X148386800Y-57048400D02*
X148386800Y-54965600D01*
X146608800Y-53187600D02*
X145453100Y-53187600D01*
X145453100Y-53187600D02*
X147853400Y-53187600D01*
X147853400Y-53187600D02*
X151561800Y-49479200D01*
D18*
X148386800Y-56121300D02*
X148386800Y-57048400D01*
D17*
X135763000Y-54788870D02*
X135763000Y-47976198D01*
X135763000Y-47976198D02*
X141778398Y-41960800D01*
X141778398Y-41960800D02*
X144119600Y-41960800D01*
X144119600Y-41960800D02*
X145491200Y-43332400D01*
X145491200Y-43332400D02*
X145491200Y-43484800D01*
X137833100Y-55727600D02*
X136701730Y-55727600D01*
X136701730Y-55727600D02*
X135763000Y-54788870D01*
X137033101Y-51447599D02*
X137833100Y-50647600D01*
X143092800Y-62331600D02*
X143092800Y-59131378D01*
X136579099Y-53789521D02*
X136579099Y-51901601D01*
X143092800Y-59131378D02*
X138403023Y-54441601D01*
X137231179Y-54441601D02*
X136579099Y-53789521D01*
X138403023Y-54441601D02*
X137231179Y-54441601D01*
X136579099Y-51901601D02*
X137033101Y-51447599D01*
X143092800Y-62331600D02*
X136931400Y-62331600D01*
X136931400Y-62331600D02*
X136144000Y-63119000D01*
X136144000Y-63119000D02*
X136144000Y-64389000D01*
X142951200Y-43484800D02*
X142951200Y-45529500D01*
X142951200Y-45529500D02*
X137833100Y-50647600D01*
D18*
X142951200Y-43637200D02*
X142951200Y-43484800D01*
D17*
X150288109Y-58372891D02*
X150114000Y-58547000D01*
X146253099Y-56874947D02*
X146253099Y-56527599D01*
X146253099Y-56527599D02*
X145453100Y-55727600D01*
X151561800Y-57099200D02*
X150288109Y-58372891D01*
X146253099Y-57226099D02*
X146253099Y-56874947D01*
X147574000Y-58547000D02*
X146253099Y-57226099D01*
X150114000Y-58547000D02*
X147574000Y-58547000D01*
X145453100Y-55727600D02*
X144754600Y-55727600D01*
X144754600Y-55727600D02*
X142494000Y-53467000D01*
X142494000Y-53467000D02*
X138112500Y-53467000D01*
X138112500Y-53467000D02*
X137833100Y-53187600D01*
X151561800Y-57099200D02*
X151561800Y-64566800D01*
X151561800Y-64566800D02*
X151638000Y-64643000D01*
D18*
X145491200Y-55765700D02*
X145453100Y-55727600D01*
D19*
G36*
X152527000Y-123518394D02*
X152093394Y-123952000D01*
X137033000Y-123952000D01*
X137033000Y-116586000D01*
X151638000Y-116586000D01*
X151687410Y-116575994D01*
X151729035Y-116547553D01*
X151756315Y-116505159D01*
X151765000Y-116459000D01*
X151765000Y-102743000D01*
X151754994Y-102693590D01*
X151726553Y-102651965D01*
X151684159Y-102624685D01*
X151638000Y-102616000D01*
X137033000Y-102616000D01*
X137033000Y-90170000D01*
X151638000Y-90170000D01*
X151687410Y-90159994D01*
X151729035Y-90131553D01*
X151756315Y-90089159D01*
X151765000Y-90043000D01*
X151765000Y-76327000D01*
X151754994Y-76277590D01*
X151726553Y-76235965D01*
X151684159Y-76208685D01*
X151638000Y-76200000D01*
X137033000Y-76200000D01*
X137033000Y-63754000D01*
X152527000Y-63754000D01*
X152527000Y-123518394D01*
X152527000Y-123518394D01*
G37*
X152527000Y-123518394D02*
X152093394Y-123952000D01*
X137033000Y-123952000D01*
X137033000Y-116586000D01*
X151638000Y-116586000D01*
X151687410Y-116575994D01*
X151729035Y-116547553D01*
X151756315Y-116505159D01*
X151765000Y-116459000D01*
X151765000Y-102743000D01*
X151754994Y-102693590D01*
X151726553Y-102651965D01*
X151684159Y-102624685D01*
X151638000Y-102616000D01*
X137033000Y-102616000D01*
X137033000Y-90170000D01*
X151638000Y-90170000D01*
X151687410Y-90159994D01*
X151729035Y-90131553D01*
X151756315Y-90089159D01*
X151765000Y-90043000D01*
X151765000Y-76327000D01*
X151754994Y-76277590D01*
X151726553Y-76235965D01*
X151684159Y-76208685D01*
X151638000Y-76200000D01*
X137033000Y-76200000D01*
X137033000Y-63754000D01*
X152527000Y-63754000D01*
X152527000Y-123518394D01*
G36*
X136271000Y-76835000D02*
X136281006Y-76884410D01*
X136309447Y-76926035D01*
X136351841Y-76953315D01*
X136398000Y-76962000D01*
X151003000Y-76962000D01*
X151003000Y-89408000D01*
X136398000Y-89408000D01*
X136348590Y-89418006D01*
X136306965Y-89446447D01*
X136279685Y-89488841D01*
X136271000Y-89535000D01*
X136271000Y-103251000D01*
X136281006Y-103300410D01*
X136309447Y-103342035D01*
X136351841Y-103369315D01*
X136398000Y-103378000D01*
X151003000Y-103378000D01*
X151003000Y-115824000D01*
X136398000Y-115824000D01*
X136348590Y-115834006D01*
X136306965Y-115862447D01*
X136279685Y-115904841D01*
X136271000Y-115951000D01*
X136271000Y-124587000D01*
X136281006Y-124636410D01*
X136309447Y-124678035D01*
X136351841Y-124705315D01*
X136398000Y-124714000D01*
X150823394Y-124714000D01*
X135927197Y-139610197D01*
X135913656Y-139626183D01*
X135509000Y-140192701D01*
X135509000Y-63754000D01*
X136271000Y-63754000D01*
X136271000Y-76835000D01*
X136271000Y-76835000D01*
G37*
X136271000Y-76835000D02*
X136281006Y-76884410D01*
X136309447Y-76926035D01*
X136351841Y-76953315D01*
X136398000Y-76962000D01*
X151003000Y-76962000D01*
X151003000Y-89408000D01*
X136398000Y-89408000D01*
X136348590Y-89418006D01*
X136306965Y-89446447D01*
X136279685Y-89488841D01*
X136271000Y-89535000D01*
X136271000Y-103251000D01*
X136281006Y-103300410D01*
X136309447Y-103342035D01*
X136351841Y-103369315D01*
X136398000Y-103378000D01*
X151003000Y-103378000D01*
X151003000Y-115824000D01*
X136398000Y-115824000D01*
X136348590Y-115834006D01*
X136306965Y-115862447D01*
X136279685Y-115904841D01*
X136271000Y-115951000D01*
X136271000Y-124587000D01*
X136281006Y-124636410D01*
X136309447Y-124678035D01*
X136351841Y-124705315D01*
X136398000Y-124714000D01*
X150823394Y-124714000D01*
X135927197Y-139610197D01*
X135913656Y-139626183D01*
X135509000Y-140192701D01*
X135509000Y-63754000D01*
X136271000Y-63754000D01*
X136271000Y-76835000D01*
M02*
